PathFileType	4	(X/Y/Z)	D:\TRACE\v60_Jaco2_6-2-23\JustArmDRS_Motion1_1-v60.trc
DataRate	CameraRate	NumFrames	NumMarkers	Units	OrigDataRate	OrigDataStartFrame	OrigNumFrames
100.00	100.00	      42	9	mm	100.00	3423	      6844
Frame#	Time	front left toe			Front right toe			aft left toe			aft right toe			Arm			FL body			FR body			AL Body			AR Body			
		X1	Y1	Z1	X2	Y2	Z2	X3	Y3	Z3	X4	Y4	Z4	X5	Y5	Z5	X6	Y6	Z6	X7	Y7	Z7	X8	Y8	Z8	X9	Y9	Z9	

3423	34.220	-213.03964	24.70478	-162.93129	194.93399	22.09879	-207.05972	-146.65129	9.11449	441.31906	256.23624	10.86596	430.33466	10.44935	1138.68481	-630.52802	-90.87481	586.42975	-303.90237	68.96190	583.44434	-321.03778	8.07761	580.00427	635.96008	164.46043	571.71594	621.39227	
3424	34.230	-213.65652	24.61199	-162.95047	193.97292	22.22351	-206.96318	-147.65366	9.10158	441.47455	254.87790	10.50417	430.48318	9.78679	1138.45483	-629.77740	-92.08297	586.44397	-303.70782	67.61192	583.62897	-320.90063	6.64213	579.74030	636.56830	163.00673	571.24902	621.67334	
3425	34.240	-214.84415	24.70737	-162.81612	192.95430	22.49641	-206.73897	-148.87019	8.74753	441.55640	254.08363	10.24139	430.52600	8.41989	1137.95093	-629.40509	-93.12948	586.71521	-303.36353	66.79796	583.82379	-320.49756	5.64821	579.38312	636.82458	161.99026	570.97546	621.93079	
3426	34.250	-215.86079	24.92369	-162.64362	191.80190	22.40730	-206.78860	-149.64589	8.36108	441.74652	253.30418	10.07499	430.48779	7.52232	1137.61279	-628.99377	-94.19482	586.79541	-303.10547	65.52123	584.05225	-320.12585	4.76994	579.00916	636.76086	161.09464	570.72327	621.86749	
3427	34.260	-216.60681	25.09408	-162.52238	191.13104	22.66475	-206.48311	-150.80797	8.29261	441.78885	251.87788	9.75583	430.64731	6.21919	1137.01685	-628.46838	-95.25401	587.11987	-302.77469	63.96798	584.32892	-319.54889	3.13669	578.68707	637.33856	160.06808	570.42322	622.23627	
3428	34.270	-217.60387	25.15273	-162.28551	190.17722	22.88220	-206.43896	-151.69000	7.92468	441.87991	251.40408	9.71467	430.86307	5.54806	1136.57690	-627.81586	-96.51922	587.26013	-302.60364	63.09494	584.61786	-319.76215	2.40531	578.38727	637.55823	158.71928	570.10669	622.43073	
3429	34.280	-218.64217	25.21687	-162.35602	189.10446	23.12568	-206.30266	-152.47324	7.46580	441.87460	250.13341	9.34367	430.67856	4.65574	1135.89465	-627.18268	-97.93791	587.36896	-302.43680	62.06977	584.74756	-319.61157	1.31282	577.90186	637.48230	157.40837	569.72284	622.48401	
3430	34.290	-219.49525	25.24514	-162.27914	188.14970	23.16359	-206.20630	-153.37975	7.31491	442.08087	249.18973	9.20393	430.69250	3.50321	1135.60156	-626.70184	-98.83385	587.40393	-302.27982	60.31697	584.56769	-319.01532	0.09280	577.69580	637.52863	156.39575	569.52979	622.84778	
3431	34.300	-220.60707	25.46649	-162.04858	187.26224	23.24452	-206.20512	-154.42792	7.07404	442.07727	248.46548	8.97123	430.90393	2.81230	1134.93665	-626.23932	-99.99892	587.39636	-302.05746	59.80780	584.84259	-319.13986	-0.94595	577.49310	638.15833	155.65407	569.38678	622.85864	
3432	34.310	-221.46645	25.67139	-161.96826	186.16838	23.27658	-206.19391	-155.31232	6.77512	442.24286	247.12497	8.59771	430.92960	1.41194	1134.36780	-625.98236	-100.97758	587.39557	-301.84760	58.65306	584.93146	-319.00912	-2.27410	577.00751	638.27197	153.64352	568.34839	622.78894	
3433	34.320	-222.25587	25.67129	-161.82735	185.55780	23.52206	-205.95830	-156.19075	6.64259	442.45419	246.39835	8.56437	431.04718	0.58213	1133.92603	-625.47827	-101.95490	587.65656	-301.53897	56.86642	584.99316	-318.58240	-2.83068	576.94659	639.36908	152.96617	568.42432	623.55640	
3434	34.330	-223.15794	25.69892	-161.67830	184.53258	23.88596	-205.75371	-157.32082	6.38015	442.54538	245.78668	8.37462	431.06976	-0.45335	1133.39783	-625.24017	-103.54612	587.65936	-301.58755	56.65723	585.41309	-318.77719	-3.73995	576.83130	639.52753	151.50465	567.86798	623.27289	
3435	34.340	-224.31628	25.86116	-161.52081	183.71538	23.89021	-205.83321	-158.04958	6.08412	442.43256	244.47707	8.03080	431.25818	-1.77255	1133.16699	-624.85248	-104.49146	587.66309	-301.33487	55.19901	585.35889	-318.61795	-5.09982	576.13171	638.34113	151.46651	568.39874	623.59814	
3436	34.350	-225.21182	25.77163	-161.50116	182.70621	24.06593	-205.70480	-159.04326	5.92239	442.55994	243.76494	7.81319	431.43466	-2.46278	1133.07666	-624.48578	-105.66392	587.83423	-301.10196	53.49130	585.44232	-318.17813	-6.43203	575.95148	638.94202	150.17390	568.34857	623.73529	
3437	34.360	-225.89658	26.02005	-161.44823	182.03059	24.02499	-205.60313	-160.01070	5.57719	442.55194	242.96262	7.72552	431.44952	-3.63538	1132.88770	-624.10779	-106.49012	587.64105	-300.89398	53.21055	585.61060	-318.09988	-7.20953	575.71033	639.11652	148.57401	567.29340	623.95813	
3438	34.370	-227.01707	26.14248	-161.28455	180.73309	24.18725	-205.61176	-160.68680	5.23338	442.70987	241.72452	7.32224	431.42657	-4.98088	1132.59180	-623.87756	-107.69576	587.79254	-300.63763	51.50452	585.62378	-317.58905	-8.52446	575.43170	638.96985	148.09099	567.49731	624.12146	
3439	34.380	-227.93896	26.05961	-161.21190	180.00128	24.45802	-205.48952	-161.78563	5.31778	442.83081	241.24756	7.31032	431.61676	-5.61406	1132.81323	-623.23926	-108.70491	587.82422	-300.62610	50.38797	585.78003	-317.46387	-9.50265	575.11340	639.46033	147.27267	567.40533	624.19238	
3440	34.390	-228.59065	26.13883	-161.06383	179.17639	24.51768	-205.23123	-162.62225	4.92789	443.03555	239.99937	6.97158	431.67603	-6.74868	1132.90710	-622.73511	-110.16672	587.97571	-300.52188	49.88717	586.08356	-317.64749	-10.43381	575.03210	639.67725	146.27112	567.49091	624.40491	
3441	34.400	-229.59967	26.34222	-160.88684	178.24995	24.68133	-205.26292	-163.28964	4.44040	443.05838	239.15889	6.70729	431.62329	-8.17649	1133.02759	-622.64282	-110.97971	588.13379	-300.17911	48.67170	586.19476	-317.38766	-11.71141	574.68762	639.52966	144.78844	567.05463	624.45343	
3442	34.410	-230.53270	26.49498	-160.83788	177.46393	24.84135	-205.15956	-164.19627	4.34391	443.29865	238.49028	6.63387	431.67316	-9.34377	1133.41394	-622.28174	-111.89688	588.34351	-299.95224	47.10223	586.19275	-316.35522	-12.40618	574.38086	639.73865	143.87099	566.99603	624.67908	
3443	34.420	-231.12532	26.57095	-160.90868	176.75339	25.04085	-205.01233	-165.25394	4.23838	443.35147	237.74814	6.32946	431.75787	-10.72488	1133.83826	-621.72406	-112.90668	588.62177	-299.71182	46.57082	586.79443	-316.73584	-13.51236	574.37036	640.30872	142.82327	566.84711	624.90948	
3444	34.430	-231.89900	26.80076	-160.63657	175.78439	25.20114	-204.84322	-165.90067	3.94504	443.22647	236.66585	6.12066	431.95648	-11.70244	1134.20166	-621.09912	-113.65466	588.53552	-299.33322	45.59686	587.06818	-316.84155	-14.84158	573.97870	639.36566	142.25255	566.84290	624.99896	
3445	34.440	-233.17584	26.95577	-160.56691	174.72182	25.30424	-204.84752	-166.73770	3.87094	443.30496	235.95976	5.98496	432.04095	-12.85805	1134.62854	-620.61627	-115.27905	588.99878	-299.37714	44.21908	587.03485	-316.31836	-15.51186	573.84003	640.25006	140.70006	566.43463	625.12909	
3446	34.450	-233.71396	26.85429	-160.61383	173.89648	25.24392	-204.70761	-167.74280	3.65744	443.43771	235.29897	5.77875	432.07657	-14.00770	1134.92896	-619.86462	-116.36243	589.04681	-299.36896	43.69400	587.30963	-316.43353	-16.68443	573.49097	640.78247	139.54300	566.20966	625.37799	
3447	34.460	-234.41264	26.99850	-160.37425	173.17615	25.46968	-204.68509	-168.51950	3.22755	443.40707	234.40619	5.46610	431.99988	-15.51582	1135.14209	-619.71515	-117.41582	589.21259	-299.15103	42.40546	587.49719	-316.37766	-17.70367	573.03931	640.89685	138.64061	565.96106	625.57220	
3448	34.470	-235.44771	26.96824	-160.27060	172.36853	25.60341	-204.61136	-169.37912	3.05156	443.59332	233.31090	5.10913	432.24622	-16.96469	1135.35315	-619.29004	-118.30585	589.26434	-298.98605	40.86914	587.60156	-315.84927	-18.67075	572.62207	640.61926	137.46103	565.74127	626.01196	
3449	34.480	-236.27325	27.14484	-160.25366	171.49896	25.78299	-204.50627	-170.32635	2.80498	443.55042	232.73778	4.98288	432.26859	-18.11588	1135.63098	-618.84375	-119.26784	589.55811	-298.72485	40.25286	588.05957	-316.10809	-19.90520	572.39539	641.18689	136.20116	565.22113	626.17395	
3450	34.490	-237.01160	27.24166	-160.26155	170.72716	26.06129	-204.12582	-170.91896	2.45183	443.85147	231.53859	4.69825	432.26285	-19.40138	1136.10620	-618.40051	-120.50939	589.74878	-298.72879	39.10514	588.25238	-316.09726	-21.20808	572.05505	641.32874	135.47763	565.02411	626.26477	
3451	34.500	-237.64473	27.26744	-160.11523	170.14496	26.12033	-204.21146	-171.63103	2.13149	443.86221	231.08656	4.60708	432.42236	-20.31003	1136.33105	-617.78491	-121.65195	590.06165	-298.65280	37.79676	588.38116	-315.44571	-21.75291	571.76160	641.01233	135.21762	564.99316	626.59796	
3452	34.510	-238.18773	27.22344	-159.99292	169.29985	26.36361	-204.17404	-172.28912	1.96140	443.97766	230.69125	4.69389	432.67548	-21.53914	1136.80835	-617.21698	-122.25957	589.92322	-298.23087	37.81560	588.70874	-315.77997	-23.22854	571.55133	641.68347	133.54956	564.64294	626.59058	
3453	34.520	-239.38390	27.43186	-159.92197	168.66693	26.52081	-204.09613	-173.17735	1.72083	444.01450	229.61903	4.42837	432.77228	-22.51988	1136.96570	-616.72034	-123.37555	589.89227	-298.21332	35.61059	588.71796	-315.15417	-24.17500	571.15558	641.77997	132.27763	564.07977	626.77411	
3454	34.530	-239.99930	27.45284	-159.85179	167.72624	26.49657	-204.12064	-173.88249	1.41065	443.87711	228.80441	4.22378	432.81961	-23.96262	1137.44019	-616.37396	-124.54237	590.01526	-297.97263	35.25121	588.85559	-315.33017	-25.00719	570.93927	641.93591	131.38484	564.06091	626.78186	
3455	34.540	-240.39211	27.32870	-159.66562	167.06793	26.61483	-203.88197	-174.38957	1.07759	444.06467	228.44536	4.23223	432.86371	-25.20102	1137.81848	-616.09961	-125.26716	590.21051	-297.80533	33.80077	588.79047	-314.86868	-25.78419	570.58368	642.01654	130.33234	563.75647	626.81836	
3456	34.550	-241.13268	27.40387	-159.53935	166.28842	26.72521	-203.80666	-175.18465	0.93095	444.31683	227.88663	4.10023	432.97845	-26.09380	1137.91724	-615.78033	-126.56929	590.40607	-297.71661	33.30591	589.09369	-314.97528	-27.11147	570.22607	642.19336	129.12601	563.45477	626.95593	
3457	34.560	-242.12340	27.73871	-159.39288	165.78333	26.85180	-203.94324	-176.16479	0.98596	444.32336	226.73953	3.69662	432.84714	-27.55681	1137.94531	-615.44635	-127.40009	590.50903	-297.61658	33.03212	589.27197	-314.72922	-27.79894	570.08276	642.33197	128.06018	563.08832	626.98553	
3458	34.570	-242.69661	27.86003	-159.37436	165.17932	27.13437	-203.71297	-176.53943	0.65453	444.41858	225.90063	3.68142	433.13733	-28.43009	1138.01245	-615.07129	-128.16852	590.35272	-297.46625	30.78454	589.25330	-314.09756	-28.40838	569.84070	642.18353	127.54607	563.21399	627.24316	
3459	34.580	-242.99945	27.70815	-159.35359	164.52956	27.38319	-203.59315	-177.11200	0.51990	444.46381	225.52855	3.41962	433.14001	-30.17285	1138.01587	-615.29205	-128.79082	590.15479	-297.16388	30.67303	589.60016	-314.77451	-29.85267	569.40942	641.60693	126.69075	563.01874	627.18396	
3460	34.590	-243.59723	27.68027	-159.23589	163.97920	27.41985	-203.57193	-177.83844	0.32214	444.58719	225.09930	3.23938	433.14481	-30.70270	1138.33118	-614.46466	-130.16698	590.21051	-297.22604	29.36959	589.76801	-314.48218	-30.31626	569.47455	642.67474	126.20396	562.96289	627.27551	
3461	34.600	-244.63701	27.97888	-159.11333	163.34808	27.38943	-203.54202	-178.58737	0.04496	444.62839	224.28761	2.98802	433.10315	-31.32091	1138.36682	-614.03699	-130.97443	590.26331	-296.96835	28.73032	589.70599	-314.30695	-31.16361	569.34619	642.82501	125.16603	562.76312	627.41992	
3462	34.610	-245.42400	28.03611	-159.05244	162.72589	27.68653	-203.37889	-179.00728	-0.24674	444.62903	223.73505	2.88958	433.04834	-32.98168	1138.87305	-613.76624	-131.77679	590.45221	-296.91693	27.31009	589.67389	-313.95499	-31.67241	569.33875	643.05328	124.29508	562.66486	627.44971	
3463	34.620	-245.81903	28.01656	-159.06126	162.34071	27.74183	-203.36382	-179.39423	-0.38264	444.54242	223.21974	2.79357	433.05594	-33.93081	1138.74023	-613.73157	-133.10841	590.67041	-296.86331	26.85703	590.07465	-314.43381	-33.01315	568.89539	642.22528	123.83147	562.66357	627.54694	
3464	34.630	-246.02904	28.05476	-159.03389	161.98555	27.81519	-203.26245	-179.88655	-0.59500	444.46552	222.77914	2.74510	433.09665	-35.51604	1139.15942	-613.70050	-133.55658	590.63373	-296.69986	26.36983	589.95636	-313.95804	-33.31585	568.83948	643.23309	123.10392	562.78510	627.78766	
